<?xml version="1.0" encoding="UTF-8"?>
<svg width="404.24956px" height="55.2px" viewBox="0 0 404.24956 55.2" version="1.1" xmlns="http://www.w3.org/2000/svg" xmlns:xlink="http://www.w3.org/1999/xlink">
    <title>logo copy 6</title>
    <defs>
        <linearGradient x1="-3.94076386%" y1="-40.0190109%" x2="100%" y2="119.644544%" id="linearGradient-1">
            <stop stop-color="#FF9A45" offset="0%"></stop>
            <stop stop-color="#FF405B" offset="100%"></stop>
        </linearGradient>
    </defs>
    <g id="Page-1" stroke="none" stroke-width="1" fill="none" fill-rule="evenodd">
        <g id="Medium-Copy-2" transform="translate(-967.000000, -982.000000)">
            <g id="logo-copy-5" transform="translate(967.000000, 982.000000)">
                <g id="Najdi-Mazlíčka" transform="translate(91.536000, 6.468000)" fill="#000000" fill-rule="nonzero">
                    <polygon id="Path" points="4.653 2.256 9.635 2.256 25.004 29.892 25.098 29.892 28.999 2.256 32.947 2.256 28.294 35.532 23.312 35.532 7.896 7.896 7.802 7.896 3.948 35.532 0 35.532"></polygon>
                    <path d="M38.305,16.356 C39.621,15.1966667 41.0858333,14.3428333 42.6995,13.7945 C44.3131667,13.2461667 45.919,12.972 47.517,12.972 C50.7756667,12.972 53.016,13.7396667 54.238,15.275 C55.46,16.8103333 55.8516667,19.1446667 55.413,22.278 L54.097,31.725 C54.003,32.3516667 53.9403333,33.0018333 53.909,33.6755 C53.8776667,34.3491667 53.8776667,34.968 53.909,35.532 L50.384,35.532 C50.3213333,35.0306667 50.3213333,34.4745 50.384,33.8635 C50.4466667,33.2525 50.5093333,32.712 50.572,32.242 L50.478,32.242 C49.6006667,33.37 48.5118333,34.2943333 47.2115,35.015 C45.9111667,35.7356667 44.415,36.096 42.723,36.096 C41.595,36.096 40.561,35.955 39.621,35.673 C38.681,35.391 37.8741667,34.9758333 37.2005,34.4275 C36.5268333,33.8791667 36.0255,33.1976667 35.6965,32.383 C35.3675,31.5683333 35.2813333,30.6283333 35.438,29.563 C35.6886667,27.7456667 36.3545,26.32 37.4355,25.286 C38.5165,24.252 39.7933333,23.4843333 41.266,22.983 C42.7386667,22.4816667 44.2896667,22.1683333 45.919,22.043 C47.5483333,21.9176667 49.0366667,21.855 50.384,21.855 L51.794,21.855 L51.888,21.197 C52.1386667,19.599 51.841,18.3926667 50.995,17.578 C50.149,16.7633333 48.8643333,16.356 47.141,16.356 C45.9503333,16.356 44.7518333,16.5518333 43.5455,16.9435 C42.3391667,17.3351667 41.2503333,17.9383333 40.279,18.753 L38.305,16.356 Z M47.705,24.957 C45.355,24.957 43.4436667,25.286 41.971,25.944 C40.4983333,26.602 39.6523333,27.683 39.433,29.187 C39.245,30.5656667 39.574,31.5448333 40.42,32.1245 C41.266,32.7041667 42.3783333,32.994 43.757,32.994 C44.8223333,32.994 45.778,32.8138333 46.624,32.4535 C47.47,32.0931667 48.2063333,31.6153333 48.833,31.02 C49.4596667,30.4246667 49.9688333,29.7275 50.3605,28.9285 C50.7521667,28.1295 51.0263333,27.2756667 51.183,26.367 L51.371,24.957 L47.705,24.957 Z" id="Shape"></path>
                    <path d="M63.591,40.467 C63.497,41.031 63.3168333,41.6811667 63.0505,42.4175 C62.7841667,43.1538333 62.369,43.8431667 61.805,44.4855 C61.241,45.1278333 60.5046667,45.6761667 59.596,46.1305 C58.6873333,46.5848333 57.5593333,46.812 56.212,46.812 C55.7733333,46.812 55.3425,46.7806667 54.9195,46.718 C54.4965,46.6553333 54.097,46.53 53.721,46.342 L54.614,43.146 C55.178,43.334 55.7576667,43.428 56.353,43.428 C57.0423333,43.428 57.6063333,43.3026667 58.045,43.052 C58.4836667,42.8013333 58.844,42.4645 59.126,42.0415 C59.408,41.6185 59.6273333,41.125 59.784,40.561 C59.9406667,39.997 60.066,39.4016667 60.16,38.775 L63.685,13.536 L67.351,13.536 L63.591,40.467 Z M64.061,4.935 C64.155,4.21433333 64.4996667,3.58766667 65.095,3.055 C65.6903333,2.52233333 66.364,2.256 67.116,2.256 C67.868,2.256 68.4633333,2.52233333 68.902,3.055 C69.3406667,3.58766667 69.513,4.21433333 69.419,4.935 C69.2936667,5.71833333 68.949,6.36066667 68.385,6.862 C67.821,7.36333333 67.1473333,7.614 66.364,7.614 C65.5806667,7.614 64.9696667,7.36333333 64.531,6.862 C64.0923333,6.36066667 63.9356667,5.71833333 64.061,4.935 Z" id="Shape"></path>
                    <path d="M90.381,31.631 L90.287,31.631 C89.441,32.8843333 88.2111667,33.9418333 86.5975,34.8035 C84.9838333,35.6651667 83.19,36.096 81.216,36.096 C79.6806667,36.096 78.2863333,35.8061667 77.033,35.2265 C75.7796667,34.6468333 74.73,33.84 73.884,32.806 C73.038,31.772 72.427,30.55 72.051,29.14 C71.675,27.73 71.5966667,26.1946667 71.816,24.534 C72.0353333,22.8733333 72.5288333,21.338 73.2965,19.928 C74.0641667,18.518 75.0276667,17.296 76.187,16.262 C77.3463333,15.228 78.678,14.4211667 80.182,13.8415 C81.686,13.2618333 83.2996667,12.972 85.023,12.972 C86.621,12.972 88.0388333,13.301 89.2765,13.959 C90.5141667,14.617 91.556,15.5413333 92.402,16.732 L92.496,16.732 L94.846,0 L98.512,0 L93.53,35.532 L89.864,35.532 L90.381,31.631 Z M91.368,24.534 C91.5246667,23.3746667 91.4933333,22.3015 91.274,21.3145 C91.0546667,20.3275 90.6551667,19.4658333 90.0755,18.7295 C89.4958333,17.9931667 88.7595,17.4135 87.8665,16.9905 C86.9735,16.5675 85.9316667,16.356 84.741,16.356 C83.5503333,16.356 82.4458333,16.5675 81.4275,16.9905 C80.4091667,17.4135 79.5083333,17.9931667 78.725,18.7295 C77.9416667,19.4658333 77.2915,20.3275 76.7745,21.3145 C76.2575,22.3015 75.9206667,23.3746667 75.764,24.534 C75.6073333,25.6933333 75.6465,26.7665 75.8815,27.7535 C76.1165,28.7405 76.5238333,29.6021667 77.1035,30.3385 C77.6831667,31.0748333 78.4195,31.6545 79.3125,32.0775 C80.2055,32.5005 81.2473333,32.712 82.438,32.712 C83.6286667,32.712 84.7331667,32.5005 85.7515,32.0775 C86.7698333,31.6545 87.6706667,31.0748333 88.454,30.3385 C89.2373333,29.6021667 89.8796667,28.7405 90.381,27.7535 C90.8823333,26.7665 91.2113333,25.6933333 91.368,24.534 Z" id="Shape"></path>
                    <path d="M103.682,13.536 L107.348,13.536 L104.293,35.532 L100.627,35.532 L103.682,13.536 Z M104.058,4.935 C104.152,4.21433333 104.496667,3.58766667 105.092,3.055 C105.687333,2.52233333 106.361,2.256 107.113,2.256 C107.865,2.256 108.460333,2.52233333 108.899,3.055 C109.337667,3.58766667 109.51,4.21433333 109.416,4.935 C109.290667,5.71833333 108.946,6.36066667 108.382,6.862 C107.818,7.36333333 107.144333,7.614 106.361,7.614 C105.577667,7.614 104.966667,7.36333333 104.528,6.862 C104.089333,6.36066667 103.932667,5.71833333 104.058,4.935 Z" id="Shape"></path>
                    <polygon id="Path" points="129.203 2.256 140.295 2.256 144.901 23.97 144.995 23.97 155.758 2.256 166.803 2.256 162.15 35.532 154.818 35.532 158.39 10.011 158.296 10.011 145.982 35.532 140.389 35.532 135.548 10.011 135.454 10.011 131.882 35.532 124.55 35.532"></polygon>
                    <path d="M182.736,32.665 L182.642,32.665 C181.702,33.887 180.542667,34.7643333 179.164,35.297 C177.785333,35.8296667 176.375333,36.096 174.934,36.096 C173.868667,36.096 172.866,35.9471667 171.926,35.6495 C170.986,35.3518333 170.179167,34.9053333 169.5055,34.31 C168.831833,33.7146667 168.338333,32.9783333 168.025,32.101 C167.711667,31.2236667 167.633333,30.2053333 167.79,29.046 C168.072,27.072 168.816167,25.5445 170.0225,24.4635 C171.228833,23.3825 172.6545,22.5835 174.2995,22.0665 C175.9445,21.5495 177.667833,21.244 179.4695,21.15 C181.271167,21.056 182.908333,21.009 184.381,21.009 C184.537667,19.7556667 184.224333,18.7608333 183.441,18.0245 C182.657667,17.2881667 181.655,16.92 180.433,16.92 C179.273667,16.92 178.184833,17.1628333 177.1665,17.6485 C176.148167,18.1341667 175.200333,18.8 174.323,19.646 L171.127,15.792 C172.599667,14.57 174.2525,13.6535 176.0855,13.0425 C177.9185,12.4315 179.775,12.126 181.655,12.126 C183.723,12.126 185.3915,12.3845 186.6605,12.9015 C187.9295,13.4185 188.893,14.1783333 189.551,15.181 C190.209,16.1836667 190.592833,17.4135 190.7025,18.8705 C190.812167,20.3275 190.726,22.0116667 190.444,23.923 L188.846,35.532 L182.36,35.532 L182.736,32.665 Z M181.984,25.521 C181.451333,25.521 180.7855,25.5445 179.9865,25.5915 C179.1875,25.6385 178.404167,25.7716667 177.6365,25.991 C176.868833,26.2103333 176.195167,26.5393333 175.6155,26.978 C175.035833,27.4166667 174.699,28.0276667 174.605,28.811 C174.542333,29.2496667 174.589333,29.6178333 174.746,29.9155 C174.902667,30.2131667 175.122,30.4716667 175.404,30.691 C175.686,30.9103333 176.022833,31.067 176.4145,31.161 C176.806167,31.255 177.19,31.302 177.566,31.302 C178.255333,31.302 178.936833,31.208 179.6105,31.02 C180.284167,30.832 180.895167,30.5656667 181.4435,30.221 C181.991833,29.8763333 182.454,29.4376667 182.83,28.905 C183.206,28.3723333 183.441,27.7456667 183.535,27.025 L183.723,25.521 L181.984,25.521 Z" id="Shape"></path>
                    <polygon id="Path" points="193.358 28.482 206.612 18.33 195.05 18.33 195.849 12.69 215.589 12.69 214.649 19.458 200.737 29.892 213.427 29.892 212.675 35.532 192.371 35.532"></polygon>
                    <polygon id="Path" points="221.84 0 228.89 0 223.908 35.532 216.858 35.532"></polygon>
                    <path d="M232.274,12.69 L239.324,12.69 L236.128,35.532 L229.078,35.532 L232.274,12.69 Z M237.303,2.256 L246.891,2.256 L237.82,9.024 L231.616,9.024 L237.303,2.256 Z" id="Shape"></path>
                    <path d="M258.829,20.069 C258.547,19.5676667 258.116167,19.1525 257.5365,18.8235 C256.956833,18.4945 256.306667,18.33 255.586,18.33 C253.8,18.33 252.343,18.8626667 251.215,19.928 C250.087,20.9933333 249.397667,22.3876667 249.147,24.111 C248.896333,25.8343333 249.186167,27.2286667 250.0165,28.294 C250.846833,29.3593333 252.155,29.892 253.941,29.892 C254.724333,29.892 255.429333,29.7196667 256.056,29.375 C256.682667,29.0303333 257.231,28.623 257.701,28.153 L261.649,33.041 C260.364333,34.169 258.954333,34.9601667 257.419,35.4145 C255.883667,35.8688333 254.442333,36.096 253.095,36.096 C251.340333,36.096 249.726667,35.814 248.254,35.25 C246.781333,34.686 245.5515,33.8791667 244.5645,32.8295 C243.5775,31.7798333 242.856833,30.5186667 242.4025,29.046 C241.948167,27.5733333 241.846333,25.9283333 242.097,24.111 C242.347667,22.2936667 242.903833,20.6486667 243.7655,19.176 C244.627167,17.7033333 245.700333,16.4421667 246.985,15.3925 C248.269667,14.3428333 249.726667,13.536 251.356,12.972 C252.985333,12.408 254.677333,12.126 256.432,12.126 C257.779333,12.126 259.165833,12.3531667 260.5915,12.8075 C262.017167,13.2618333 263.2,14.053 264.14,15.181 L258.829,20.069 Z M253.988,2.256 L256.432,5.922 L259.863,2.256 L266.208,2.256 L259.675,9.024 L252.014,9.024 L247.502,2.256 L253.988,2.256 Z" id="Shape"></path>
                    <polygon id="Path" points="268.84 0 275.89 0 272.835 21.714 281.906 12.69 290.554 12.69 280.026 22.983 287.593 35.532 278.71 35.532 272.6 23.97 272.506 23.97 270.908 35.532 263.858 35.532"></polygon>
                    <path d="M304.701,32.665 L304.607,32.665 C303.667,33.887 302.507667,34.7643333 301.129,35.297 C299.750333,35.8296667 298.340333,36.096 296.899,36.096 C295.833667,36.096 294.831,35.9471667 293.891,35.6495 C292.951,35.3518333 292.144167,34.9053333 291.4705,34.31 C290.796833,33.7146667 290.303333,32.9783333 289.99,32.101 C289.676667,31.2236667 289.598333,30.2053333 289.755,29.046 C290.037,27.072 290.781167,25.5445 291.9875,24.4635 C293.193833,23.3825 294.6195,22.5835 296.2645,22.0665 C297.9095,21.5495 299.632833,21.244 301.4345,21.15 C303.236167,21.056 304.873333,21.009 306.346,21.009 C306.502667,19.7556667 306.189333,18.7608333 305.406,18.0245 C304.622667,17.2881667 303.62,16.92 302.398,16.92 C301.238667,16.92 300.149833,17.1628333 299.1315,17.6485 C298.113167,18.1341667 297.165333,18.8 296.288,19.646 L293.092,15.792 C294.564667,14.57 296.2175,13.6535 298.0505,13.0425 C299.8835,12.4315 301.74,12.126 303.62,12.126 C305.688,12.126 307.3565,12.3845 308.6255,12.9015 C309.8945,13.4185 310.858,14.1783333 311.516,15.181 C312.174,16.1836667 312.557833,17.4135 312.6675,18.8705 C312.777167,20.3275 312.691,22.0116667 312.409,23.923 L310.811,35.532 L304.325,35.532 L304.701,32.665 Z M303.949,25.521 C303.416333,25.521 302.7505,25.5445 301.9515,25.5915 C301.1525,25.6385 300.369167,25.7716667 299.6015,25.991 C298.833833,26.2103333 298.160167,26.5393333 297.5805,26.978 C297.000833,27.4166667 296.664,28.0276667 296.57,28.811 C296.507333,29.2496667 296.554333,29.6178333 296.711,29.9155 C296.867667,30.2131667 297.087,30.4716667 297.369,30.691 C297.651,30.9103333 297.987833,31.067 298.3795,31.161 C298.771167,31.255 299.155,31.302 299.531,31.302 C300.220333,31.302 300.901833,31.208 301.5755,31.02 C302.249167,30.832 302.860167,30.5656667 303.4085,30.221 C303.956833,29.8763333 304.419,29.4376667 304.795,28.905 C305.171,28.3723333 305.406,27.7456667 305.5,27.025 L305.688,25.521 L303.949,25.521 Z" id="Shape"></path>
                </g>
                <path d="M31.2,23.4893617 C21.4610377,23.4893617 7.65283019,38.6956037 7.65283019,48.2942653 C7.65283019,52.6173172 10.9408491,55.2 16.4511321,55.2 C22.4409434,55.2 26.3961321,52.0933484 31.2,52.0933484 C36.045566,52.0933484 40.0117925,55.2 45.9488679,55.2 C51.4591509,55.2 54.7471698,52.6173172 54.7471698,48.2942653 C54.7471698,38.6956037 40.9389623,23.4893617 31.2,23.4893617 Z M13.1434053,22.2216222 C11.8862146,17.9295951 8.01310035,15.1499966 4.49296651,16.0121181 C0.97283267,16.8742395 -0.860973317,21.0523081 0.39621734,25.3443352 C1.653408,29.6363623 5.52652229,32.4159608 9.04665613,31.5538394 C12.56679,30.6917179 14.400596,26.5136494 13.1434053,22.2216222 L13.1434053,22.2216222 Z M23.527612,19.7928728 C27.3222339,18.7771136 29.2207713,13.561053 27.76866,8.14283873 C26.3165487,2.72462449 22.0632363,-0.843011276 18.2686144,0.17274791 C14.4739925,1.1885071 12.5754551,6.40456778 14.0275664,11.822782 C15.4796777,17.2409963 19.7342166,20.8098799 23.527612,19.7928728 Z M57.9070335,16.0121181 C54.3868996,15.1499966 50.5149942,17.9295951 49.2565947,22.2216222 C47.999404,26.5136494 49.83321,30.6917179 53.3533439,31.5538394 C56.8734777,32.4159608 60.7453832,29.6363623 62.0037827,25.3443352 C63.2609733,21.0523081 61.4271673,16.8742395 57.9070335,16.0121181 L57.9070335,16.0121181 Z M38.872388,19.7932095 C42.6670099,20.8089687 46.9203223,17.241333 48.3724336,11.8231187 C49.8245449,6.40490448 47.9260075,1.19009166 44.1313856,0.17308461 C40.3367637,-0.843922438 36.0834513,2.72496119 34.63134,8.14317543 C33.1792287,13.5613897 35.0777661,18.7774504 38.872388,19.7932095 Z" id="Shape" fill="url(#linearGradient-1)"></path>
            </g>
        </g>
    </g>
</svg>